<svg width="772" height="686" viewBox="0 0 772 686" fill="none" xmlns="http://www.w3.org/2000/svg">
<g clip-path="url(#clip0)">
<path d="M699.628 562.603C692.372 553.78 675.582 546.222 653.093 541.219V427.51H652.065V426.335H633.497V427.51H604.324C606.938 410.305 615.657 350.317 613.901 326.223C613.901 326.223 636.568 255.568 618.021 196.681C618.021 196.681 636.589 201.39 638.632 177.835C640.296 158.819 659.399 116.802 637.461 92.6271C632.312 86.4569 624.656 81.3558 613.601 77.9361L608.237 60.7965C611.737 54.4711 613.901 45.934 613.901 36.5235C613.901 23.8484 610.001 12.7403 604.16 6.50478C600.796 2.42392 596.69 -0.0245934 592.255 -0.0245934C588.877 0.0345953 585.612 1.37219 582.971 3.77877C583.356 4.1134 583.728 4.47251 584.099 4.84795C577.322 10.6346 572.673 22.6242 572.673 36.4827C572.673 46.9705 575.351 56.3647 579.586 62.8369L576.793 83.5921C576.793 83.5921 519.09 67.13 543.828 177.835C543.828 177.835 550.013 196.681 560.318 196.681C560.318 196.681 554.133 281.473 564.438 312.096C564.438 312.096 560.318 387.469 568.566 403.956V427.51H517.033V544.141C490.652 551.046 473.748 561.648 473.748 573.523C473.748 594.344 525.424 611.214 589.17 611.214C652.915 611.214 704.584 594.376 704.584 573.548C704.584 569.744 702.841 566.072 699.628 562.603Z" fill="#F2F2F2"/>
<path d="M293.46 574.96C286.726 566.749 271.086 559.722 250.125 555.062V449.245H249.168V448.151H231.907V449.245H204.769C207.205 433.24 215.317 377.422 213.682 354.994C213.682 354.994 234.778 289.235 217.517 234.437C217.517 234.437 234.778 238.82 236.699 216.906C238.249 199.211 256.024 160.108 235.606 137.615C230.814 131.901 223.694 127.127 213.411 123.96L208.411 107.979C211.675 102.087 213.682 94.1535 213.682 85.3878C213.682 73.5941 210.061 63.2614 204.619 57.4584C201.491 53.6551 197.671 51.4188 193.543 51.4188C190.403 51.4756 187.369 52.7215 184.916 54.961C185.273 55.2711 185.63 55.6057 185.966 55.9485C179.66 61.3353 175.325 72.4923 175.325 85.3878C175.325 95.1819 177.824 103.89 181.752 109.873L179.153 129.184C179.153 129.184 125.455 113.84 148.444 216.865C148.444 216.865 154.2 234.396 163.791 234.396C163.791 234.396 158.035 313.304 167.626 341.804C167.626 341.804 163.791 411.946 171.461 427.29V449.204H123.541V557.755C98.996 564.178 83.2632 574.078 83.2632 585.121C83.2632 604.489 131.354 620.217 190.672 620.217C249.989 620.217 298.073 604.513 298.073 585.121C298.073 581.604 296.452 578.184 293.46 574.96Z" fill="#F2F2F2"/>
<path d="M451.481 569.434C446.482 563.313 434.812 558.082 419.201 554.613V475.803H418.487V474.987H405.632V475.803H385.422C387.236 463.879 393.277 422.295 392.063 405.613C392.063 405.613 407.775 356.642 394.92 315.834C394.92 315.834 407.775 319.098 409.203 302.775C410.36 289.594 423.6 260.473 408.389 243.717C404.818 239.44 399.519 235.906 391.856 233.547L388.142 221.623C390.795 216.54 392.156 210.712 392.07 204.794C392.07 196.012 389.371 188.315 385.314 183.989C382.986 181.157 380.144 179.492 377.073 179.492C374.734 179.536 372.473 180.467 370.646 182.137C370.917 182.365 371.174 182.61 371.431 182.871C366.732 186.879 363.504 195.187 363.504 204.794C363.504 212.066 365.368 218.579 368.303 223.06L366.361 237.449C366.361 237.449 326.368 226.022 343.508 302.742C343.508 302.742 347.793 315.801 354.934 315.801C354.934 315.801 350.649 374.565 357.791 395.786C357.791 395.786 354.934 448.021 360.648 459.447V475.771H324.94V556.572C306.658 561.354 294.945 568.708 294.945 576.976C294.945 591.406 330.76 603.093 374.931 603.093C419.101 603.093 454.916 591.398 454.916 576.976C454.916 574.38 453.709 571.834 451.481 569.434Z" fill="#F2F2F2"/>
<path d="M742.834 582.803C739.877 579.196 733.014 576.111 723.816 574.062V527.622H723.395V527.14H715.818V527.622H703.906C704.977 520.595 708.54 496.085 707.819 486.25C707.819 486.25 717.103 457.382 709.504 433.33C709.504 433.33 717.082 435.256 717.924 425.633C718.638 417.871 726.408 400.707 717.446 390.832C715.339 388.31 712.211 386.229 707.698 384.841L705.505 377.822C707.071 374.828 707.873 371.393 707.819 367.905C707.819 362.731 706.227 358.193 703.841 355.663C703.236 354.859 702.491 354.208 701.654 353.751C700.817 353.294 699.905 353.042 698.978 353.01C697.6 353.038 696.269 353.586 695.193 354.569C695.352 354.704 695.504 354.848 695.65 355.002C692.886 357.361 690.986 362.258 690.986 367.922C690.919 371.765 691.919 375.534 693.843 378.687L692.7 387.167C692.7 387.167 669.133 380.434 679.231 425.65C679.231 425.65 681.76 433.346 685.966 433.346C685.966 433.346 683.445 467.984 687.651 480.488C687.651 480.488 685.966 511.282 689.337 518.032V527.655H668.255V575.295C657.478 578.11 650.573 582.444 650.573 587.3C650.573 595.805 671.683 602.702 697.707 602.702C723.73 602.702 744.841 595.805 744.841 587.3C744.862 585.717 744.148 584.215 742.834 582.803Z" fill="#F2F2F2"/>
<path d="M128.662 582.803C125.705 579.196 118.842 576.111 109.644 574.062V527.622H109.223V527.14H101.645V527.622H89.7334C90.8046 520.595 94.3682 496.085 93.6469 486.25C93.6469 486.25 102.931 457.382 95.3323 433.33C95.3323 433.33 102.91 435.256 103.752 425.633C104.431 417.871 112.236 400.707 103.274 390.832C101.131 388.31 98.039 386.229 93.5255 384.841L91.3331 377.822C92.8989 374.828 93.7004 371.393 93.6469 367.905C93.6469 362.731 92.0544 358.193 89.6691 355.663C89.0642 354.859 88.3193 354.208 87.4819 353.751C86.6446 353.294 85.7331 353.042 84.8057 353.01C83.4281 353.038 82.0972 353.586 81.0207 354.569C81.1797 354.704 81.3322 354.848 81.4778 355.002C78.714 357.361 76.8143 362.258 76.8143 367.922C76.7374 371.754 77.7223 375.516 79.6281 378.671L78.4854 387.151C78.4854 387.151 54.9184 380.417 65.0165 425.633C65.0165 425.633 67.5446 433.33 71.751 433.33C71.751 433.33 69.23 467.968 73.4364 480.472C73.4364 480.472 71.751 511.266 75.1218 518.016V527.638H54.0828V575.278C43.3063 578.094 36.4004 582.428 36.4004 587.284C36.4004 595.789 57.5108 602.685 83.5345 602.685C109.558 602.685 130.669 595.789 130.669 587.284C130.69 585.717 129.976 584.215 128.662 582.803Z" fill="#F2F2F2"/>
<path d="M0 586.321H772C772 586.321 743.434 675.055 670.255 643.453C597.075 611.851 553.34 649.574 513.176 666.91C473.012 684.245 392.692 697.516 372.167 670.991C351.642 644.465 332.888 632.231 260.609 642.425C188.329 652.619 141.01 674.043 132.061 645.485C123.113 616.927 121.349 607.746 70.4798 612.838C19.6107 617.931 0 586.321 0 586.321Z" fill="#2F2E41"/>
<path d="M384.041 526.774C470.606 526.774 540.781 453.644 540.781 363.434C540.781 273.225 470.606 200.095 384.041 200.095C297.476 200.095 227.302 273.225 227.302 363.434C227.302 453.644 297.476 526.774 384.041 526.774Z" fill="#2F2E41"/>
<path d="M360.233 491.625H312.616V580.531H360.233V491.625Z" fill="#2F2E41"/>
<path d="M455.467 491.625H407.85V580.531H455.467V491.625Z" fill="#2F2E41"/>
<path d="M352.296 597.072C374.212 597.072 391.977 590.129 391.977 581.565C391.977 573.001 374.212 566.058 352.296 566.058C330.381 566.058 312.616 573.001 312.616 581.565C312.616 590.129 330.381 597.072 352.296 597.072Z" fill="#2F2E41"/>
<path d="M447.53 595.004C469.446 595.004 487.211 588.062 487.211 579.497C487.211 570.933 469.446 563.99 447.53 563.99C425.615 563.99 407.85 570.933 407.85 579.497C407.85 588.062 425.615 595.004 447.53 595.004Z" fill="#2F2E41"/>
<path d="M388.009 377.908C417.595 377.908 441.578 352.914 441.578 322.083C441.578 291.251 417.595 266.258 388.009 266.258C358.424 266.258 334.44 291.251 334.44 322.083C334.44 352.914 358.424 377.908 388.009 377.908Z" fill="white"/>
<path d="M388.009 340.691C397.871 340.691 405.866 332.36 405.866 322.083C405.866 311.806 397.871 303.474 388.009 303.474C378.147 303.474 370.153 311.806 370.153 322.083C370.153 332.36 378.147 340.691 388.009 340.691Z" fill="#3F3D56"/>
<path d="M231.998 211.534C219.342 152.467 259.799 92.7837 322.36 78.2261C384.921 63.6685 445.896 99.7497 458.552 158.816C471.208 217.882 429.747 239.666 367.186 254.224C304.625 268.782 244.654 270.6 231.998 211.534Z" fill="#FF0000"/>
<path d="M531.047 330.857C570.838 313.109 598.761 288.169 593.415 275.151C588.068 262.133 551.477 265.968 511.686 283.716C471.895 301.464 443.972 326.404 449.319 339.422C454.665 352.439 491.256 348.605 531.047 330.857Z" fill="#2F2E41"/>
<path d="M237.409 440.439C277.2 422.691 305.123 397.751 299.776 384.733C294.43 371.716 257.839 375.55 218.048 393.298C178.257 411.046 150.334 435.986 155.681 449.004C161.027 462.021 197.618 458.187 237.409 440.439Z" fill="#2F2E41"/>
<path d="M475.307 410.989C475.307 426.976 435.808 458.544 391.977 458.544C348.147 458.544 306.663 429.043 306.663 413.057C306.663 397.07 348.147 400.651 391.977 400.651C435.808 400.651 475.307 395.002 475.307 410.989Z" fill="white"/>
<path d="M190.234 515.266V480.88H168.712C169.862 475.728 173.711 457.725 172.937 450.498C172.937 450.498 182.959 429.309 174.768 411.652C175.861 411.858 177.001 411.866 178.099 411.678C179.198 411.489 180.226 411.107 181.105 410.563C181.985 410.018 182.691 409.324 183.171 408.535C183.651 407.745 183.891 406.881 183.874 406.009C184.766 398.946 197.533 381.288 172.937 376.337L170.426 370.876C172.125 368.679 172.995 366.156 172.937 363.594C172.937 357.751 168.853 353 163.831 353C158.808 353 154.724 357.751 154.724 363.594C154.637 366.418 155.705 369.19 157.776 371.513L156.532 377.811C156.532 377.811 131.043 372.86 141.98 406.063C141.98 406.063 144.703 411.706 149.256 411.706C149.256 411.706 146.533 437.191 151.087 446.293C151.087 446.293 149.256 468.884 152.894 473.835V480.898H130.128V515.867C118.393 517.942 111 521.128 111 524.696C111 530.939 133.836 536 162 536C190.164 536 213 530.939 213 524.696C213 520.745 203.964 517.287 190.234 515.266Z" fill="#FF0000"/>
</g>
<defs>
<clipPath id="clip0">
<rect width="772" height="686" fill="white"/>
</clipPath>
</defs>
</svg>
